<?xml version="1.0" standalone="no"?>
<!DOCTYPE svg PUBLIC "-//W3C//DTD SVG 20010904//EN"
 "http://www.w3.org/TR/2001/REC-SVG-20010904/DTD/svg10.dtd">
<svg version="1.0" xmlns="http://www.w3.org/2000/svg"
 width="240.000000pt" height="240.000000pt" viewBox="0 0 240.000000 240.000000"
 preserveAspectRatio="xMidYMid meet">
<metadata>
Created by potrace 1.11, written by Peter Selinger 2001-2013
</metadata>
<g transform="translate(0.000000,240.000000) scale(0.100000,-0.100000)"
fill="#000000" stroke="none">
<path d="M825 2322 c-232 -35 -423 -194 -497 -413 -16 -51 -21 -88 -21 -179 0
-63 2 -126 6 -139 43 -159 128 -280 255 -364 101 -67 235 -108 333 -101 30 2
32 1 14 -9 -65 -39 -93 -94 -90 -174 l2 -43 -113 0 -113 0 -28 37 c-15 21 -31
42 -36 48 -4 5 -27 37 -52 70 -24 33 -48 65 -53 70 -4 6 -19 25 -32 43 l-24
33 -98 -2 c-85 -1 -103 -5 -136 -26 -67 -44 -66 -38 -67 -528 -2 -466 0 -485
46 -528 34 -31 81 -43 169 -43 l85 1 103 135 c56 74 107 142 111 150 7 11 35
14 123 15 l113 1 1 -61 c1 -46 7 -70 25 -97 45 -70 30 -68 610 -68 576 0 565
-1 612 64 21 30 22 41 25 284 l3 252 37 0 c20 0 58 -11 84 -25 52 -28 81 -31
95 -12 7 9 10 212 4 288 -2 29 -32 30 -87 3 -30 -15 -72 -28 -94 -29 -34 -2
-40 0 -40 17 0 44 -52 109 -99 123 -22 7 -18 10 37 30 117 42 193 108 242 210
37 75 47 124 44 201 -8 179 -126 326 -302 380 -66 19 -193 12 -260 -15 -122
-49 -209 -144 -246 -271 -9 -30 -16 -56 -16 -57 0 -2 0 -23 0 -48 0 -39 -3
-45 -21 -45 -16 0 -20 4 -14 18 42 108 43 285 2 400 -86 246 -302 402 -562
406 -33 1 -69 0 -80 -2z m375 -1160 l0 -37 -99 0 c-94 0 -143 8 -83 13 32 3
113 29 151 48 14 8 27 14 29 14 1 0 2 -17 2 -38z m592 -19 c54 -8 51 -18 -5
-18 -38 -1 -54 3 -58 15 -9 22 0 33 16 20 8 -7 29 -14 47 -17z"/>
</g>
</svg>
